<svg width="137" height="15" viewBox="0 0 137 15" fill="none" xmlns="http://www.w3.org/2000/svg">
<g clip-path="url(#clip0_602_47161)">
<path d="M129.674 5.99441V8.83192H133.617C133.444 9.74444 132.924 10.5171 132.145 11.0367L134.523 12.8817C135.908 11.6029 136.708 9.72452 136.708 7.49316C136.708 6.97363 136.661 6.47402 136.574 5.99449L129.674 5.99441Z" fill="#4285F4"/>
<path d="M125.567 8.72173L125.031 9.13227L123.133 10.6109C124.338 13.0021 126.809 14.654 129.673 14.654C131.652 14.654 133.31 14.0013 134.522 12.8823L132.145 11.0372C131.492 11.4769 130.659 11.7433 129.673 11.7433C127.768 11.7433 126.15 10.4578 125.57 8.72596L125.567 8.72173Z" fill="#34A853"/>
<path d="M123.133 4.04338C122.633 5.02914 122.347 6.14151 122.347 7.32711C122.347 8.51271 122.633 9.62508 123.133 10.6108C123.133 10.6175 125.57 8.71917 125.57 8.71917C125.424 8.27956 125.337 7.81334 125.337 7.32703C125.337 6.84073 125.424 6.37451 125.57 5.9349L123.133 4.04338Z" fill="#FBBC05"/>
<path d="M129.674 2.91743C130.753 2.91743 131.712 3.29042 132.478 4.0098L134.576 1.91167C133.304 0.726072 131.652 0 129.674 0C126.809 0 124.338 1.64521 123.133 4.04311L125.571 5.93478C126.15 4.20295 127.769 2.91743 129.674 2.91743Z" fill="#EA4335"/>
</g>
<g clip-path="url(#clip1_602_47161)">
<path d="M88.8913 1.31941C90.849 1.31941 91.0808 1.328 91.8507 1.36234C92.5662 1.39382 92.9526 1.51403 93.2102 1.6142C93.5508 1.74586 93.7969 1.90613 94.0516 2.16086C94.3092 2.41844 94.4666 2.66172 94.5983 3.0023C94.6984 3.25989 94.8186 3.64913 94.8501 4.36178C94.8845 5.13454 94.8931 5.36636 94.8931 7.32115C94.8931 9.2788 94.8845 9.51063 94.8501 10.2805C94.8186 10.996 94.6984 11.3824 94.5983 11.64C94.4666 11.9806 94.3063 12.2267 94.0516 12.4814C93.794 12.739 93.5508 12.8964 93.2102 13.0281C92.9526 13.1283 92.5633 13.2485 91.8507 13.28C91.0779 13.3143 90.8461 13.3229 88.8913 13.3229C86.9337 13.3229 86.7018 13.3143 85.9319 13.28C85.2164 13.2485 84.8301 13.1283 84.5725 13.0281C84.2319 12.8964 83.9857 12.7362 83.731 12.4814C83.4734 12.2239 83.316 11.9806 83.1844 11.64C83.0842 11.3824 82.964 10.9932 82.9325 10.2805C82.8982 9.50777 82.8896 9.27594 82.8896 7.32115C82.8896 5.3635 82.8982 5.13167 82.9325 4.36178C82.964 3.64627 83.0842 3.25989 83.1844 3.0023C83.316 2.66172 83.4763 2.41558 83.731 2.16086C83.9886 1.90327 84.2319 1.74586 84.5725 1.6142C84.8301 1.51403 85.2193 1.39382 85.9319 1.36234C86.7018 1.328 86.9337 1.31941 88.8913 1.31941ZM88.8913 0C86.9022 0 86.6532 0.00858618 85.8718 0.0429309C85.0934 0.0772756 84.5582 0.203206 84.0945 0.383516C83.6108 0.572412 83.2015 0.821411 82.7951 1.23069C82.3859 1.6371 82.1369 2.04637 81.948 2.5272C81.7676 2.99372 81.6417 3.52606 81.6074 4.30454C81.573 5.08874 81.5644 5.33774 81.5644 7.32688C81.5644 9.31601 81.573 9.56501 81.6074 10.3464C81.6417 11.1248 81.7676 11.66 81.948 12.1237C82.1369 12.6074 82.3859 13.0167 82.7951 13.4231C83.2015 13.8295 83.6108 14.0813 84.0916 14.2674C84.5582 14.4477 85.0905 14.5736 85.869 14.608C86.6503 14.6423 86.8993 14.6509 88.8885 14.6509C90.8776 14.6509 91.1266 14.6423 91.9079 14.608C92.6864 14.5736 93.2216 14.4477 93.6853 14.2674C94.1661 14.0813 94.5754 13.8295 94.9818 13.4231C95.3882 13.0167 95.6401 12.6074 95.8261 12.1266C96.0064 11.66 96.1323 11.1277 96.1667 10.3492C96.201 9.56787 96.2096 9.31887 96.2096 7.32974C96.2096 5.34061 96.201 5.09161 96.1667 4.31026C96.1323 3.53178 96.0064 2.99658 95.8261 2.53292C95.6458 2.04637 95.3968 1.6371 94.9875 1.23069C94.5811 0.824274 94.1718 0.572412 93.691 0.386378C93.2245 0.206068 92.6921 0.0801377 91.9137 0.045793C91.1295 0.00858619 90.8805 0 88.8913 0Z" fill="#000100"/>
<path d="M88.8915 3.56348C86.8137 3.56348 85.1279 5.24923 85.1279 7.32709C85.1279 9.40494 86.8137 11.0907 88.8915 11.0907C90.9694 11.0907 92.6551 9.40494 92.6551 7.32709C92.6551 5.24923 90.9694 3.56348 88.8915 3.56348ZM88.8915 9.76842C87.5435 9.76842 86.4502 8.67512 86.4502 7.32709C86.4502 5.97906 87.5435 4.88575 88.8915 4.88575C90.2396 4.88575 91.3329 5.97906 91.3329 7.32709C91.3329 8.67512 90.2396 9.76842 88.8915 9.76842Z" fill="#000100"/>
<path d="M93.6824 3.4146C93.6824 3.90115 93.2875 4.29326 92.8038 4.29326C92.3172 4.29326 91.9251 3.89829 91.9251 3.4146C91.9251 2.92805 92.3201 2.53595 92.8038 2.53595C93.2875 2.53595 93.6824 2.93091 93.6824 3.4146Z" fill="#000100"/>
</g>
<path d="M51.9716 1.16296H54.0314L49.5314 6.30612L54.8253 13.3048H50.6802L47.4337 9.06014L43.7189 13.3048H41.6579L46.4711 7.80361L41.3927 1.16296H45.6429L48.5775 5.04275L51.9716 1.16296ZM51.2487 12.0719H52.39L45.0228 2.33107H43.798L51.2487 12.0719Z" fill="black"/>
<g clip-path="url(#clip2_602_47161)">
<path d="M14.6538 7.32688C14.6538 3.28039 11.3734 0 7.32688 0C3.28039 0 0 3.28039 0 7.32688C0 10.7629 2.3657 13.6462 5.557 14.438V9.56597H4.04619V7.32688H5.557V6.36207C5.557 3.8683 6.68563 2.71241 9.13398 2.71241C9.59821 2.71241 10.3992 2.80356 10.7268 2.89441V4.92395C10.5539 4.90578 10.2535 4.8967 9.88044 4.8967C8.67913 4.8967 8.21489 5.35184 8.21489 6.53499V7.32688H10.6081L10.197 9.56597H8.21489V14.6001C11.8429 14.162 14.654 11.073 14.654 7.32688H14.6538Z" fill="#0866FF"/>
<path d="M10.1971 9.56616L10.6083 7.32707H8.21503V6.53518C8.21503 5.35203 8.67926 4.89689 9.88057 4.89689C10.2537 4.89689 10.5541 4.90597 10.727 4.92414V2.8946C10.3993 2.80345 9.59834 2.7126 9.13411 2.7126C6.68576 2.7126 5.55713 3.86849 5.55713 6.36226V7.32707H4.04633V9.56616H5.55713V14.4382C6.12394 14.5789 6.71683 14.6539 7.32701 14.6539C7.62741 14.6539 7.92371 14.6355 8.21473 14.6003V9.56616H10.1968H10.1971Z" fill="white" fill-opacity="0.7"/>
</g>
<defs>
<clipPath id="clip0_602_47161">
<rect width="14.5815" height="14.5815" fill="white" transform="translate(122.347) scale(1.00496)"/>
</clipPath>
<clipPath id="clip1_602_47161">
<rect width="14.5815" height="14.5815" fill="white" transform="translate(81.5644) scale(1.00496)"/>
</clipPath>
<clipPath id="clip2_602_47161">
<rect width="14.5815" height="14.5815" fill="white" transform="scale(1.00496)"/>
</clipPath>
</defs>
</svg>
