<svg width="51" height="50" viewBox="0 0 51 50" fill="none" xmlns="http://www.w3.org/2000/svg">
<g clip-path="url(#clip0_753_4562)">
<path d="M33.4287 12.8035C33.6033 12.9787 33.7664 13.1643 33.917 13.3589C34.327 13.8888 34.6452 14.4861 34.856 15.1258L35.7889 17.994C35.8668 18.215 36.0116 18.4065 36.2031 18.5419C36.3947 18.6773 36.6235 18.75 36.8581 18.75C37.0927 18.75 37.3214 18.6773 37.5131 18.5419C37.6839 18.4211 37.8175 18.2557 37.8997 18.0644C37.9097 18.0413 37.9189 18.0178 37.9273 17.994L38.8602 15.1258C39.1504 14.2538 39.64 13.4614 40.2902 12.8116C40.9404 12.1619 41.7335 11.6726 42.606 11.3827L45.4764 10.4506C45.6977 10.3726 45.8893 10.228 46.0248 10.0366C46.1604 9.84523 46.2331 9.61658 46.2331 9.38217C46.2331 9.14775 46.1604 8.9191 46.0248 8.72775C45.8893 8.5364 45.6977 8.39175 45.4764 8.31377L45.4191 8.29942L42.5487 7.36725C41.676 7.0774 40.8831 6.58812 40.2327 5.93835C39.5825 5.2886 39.0929 4.49623 38.8029 3.62423L37.87 0.756029C37.7918 0.534962 37.647 0.343531 37.4556 0.208124C37.2641 0.0727156 37.0354 0 36.8006 0C36.566 0 36.3372 0.0727156 36.1458 0.208124C35.9543 0.343531 35.8095 0.534962 35.7314 0.756029L34.7985 3.62423L34.7747 3.69525C34.4879 4.53323 34.0158 5.29633 33.3935 5.92785C33.172 6.15269 32.9335 6.35873 32.6804 6.5444L32.6783 6.54233C32.4585 6.70423 32.2281 6.85108 31.9885 6.98192C31.7075 7.13346 31.4137 7.26248 31.1102 7.36725L29.8585 7.77371L28.2341 8.29165C28.0166 8.37446 27.8283 8.51935 27.6925 8.70831C27.5575 8.89029 27.4845 9.11033 27.4835 9.33617C27.4833 9.34671 27.4831 9.35727 27.4831 9.36783C27.4831 9.38319 27.4835 9.39854 27.4839 9.41383C27.4875 9.61104 27.5468 9.80304 27.655 9.96756C27.6666 9.9861 27.6787 10.0043 27.6914 10.0222C27.7916 10.1639 27.9229 10.28 28.0739 10.3624C28.1252 10.3912 28.1787 10.4164 28.2341 10.4375L31.1091 11.375C31.6462 11.5515 32.1533 11.8038 32.6158 12.1228C32.9056 12.3243 33.1779 12.5519 33.4287 12.8035ZM48.3529 20.7596L49.9475 21.2775L49.9793 21.2854C50.1023 21.3287 50.2087 21.4092 50.2841 21.5154C50.3593 21.6217 50.3998 21.7487 50.3998 21.879C50.3998 22.0092 50.3593 22.1362 50.2841 22.2425C50.2087 22.349 50.1023 22.4292 49.9793 22.4725L48.3848 22.9904C47.9 23.1515 47.4593 23.4233 47.0981 23.7842C46.7368 24.1452 46.465 24.5854 46.3037 25.0698L45.7854 26.6633C45.742 26.786 45.6616 26.8925 45.5552 26.9677C45.4489 27.0429 45.3218 27.0833 45.1914 27.0833C45.1225 27.0833 45.0541 27.0721 44.9895 27.0502C44.9041 27.0317 44.8237 26.9931 44.755 26.9375C44.641 26.8712 44.5529 26.7685 44.505 26.6458L44.3137 25.791L44.0791 25.0698C43.9191 24.584 43.6475 24.1421 43.2862 23.7798C42.9248 23.4173 42.4837 23.1444 41.9981 22.9825L40.4035 22.4646C40.2806 22.4212 40.1741 22.3408 40.0987 22.2346C40.0235 22.1283 39.9831 22.0012 39.9831 21.871C39.9831 21.7408 40.0235 21.6137 40.0987 21.5075C40.1741 21.401 40.2806 21.3208 40.4035 21.2775L41.9981 20.7596C42.477 20.5944 42.9112 20.3207 43.2666 19.9599C43.622 19.5992 43.8893 19.1612 44.0473 18.6801L44.5656 17.0867C44.6089 16.9639 44.6893 16.8575 44.7956 16.7823C44.902 16.7071 45.0291 16.6667 45.1595 16.6667C45.29 16.6667 45.417 16.7071 45.5233 16.7823C45.6298 16.8575 45.7102 16.9639 45.7535 17.0867L46.2718 18.6801C46.4329 19.1646 46.705 19.6048 47.0662 19.9657C47.4275 20.3267 47.8681 20.5985 48.3529 20.7596ZM31.6497 26.0417C31.6497 22.5898 28.8516 19.7917 25.3997 19.7917C21.9479 19.7917 19.1497 22.5898 19.1497 26.0417C19.1497 29.4935 21.9479 32.2917 25.3997 32.2917C28.8516 32.2917 31.6497 29.4935 31.6497 26.0417ZM46.2331 36.9792V28.9421C45.8825 29.1035 45.4991 29.1883 45.1091 29.1883C44.5487 29.1883 44.0025 29.0133 43.5466 28.6875C43.075 28.3519 42.7185 27.879 42.5258 27.3333L42.0258 25.75C41.9668 25.57 41.8668 25.4058 41.7341 25.2708C41.5998 25.1473 41.4445 25.0485 41.2758 24.9792L39.63 24.4583C39.0997 24.2683 38.6412 23.9192 38.3175 23.4583C37.9881 23.0044 37.8129 22.4567 37.8175 21.8958C37.8154 21.4119 37.945 20.9367 38.1925 20.5208C37.7543 20.7457 37.2681 20.8602 36.7758 20.8542C36.1129 20.8521 35.4662 20.6487 34.9216 20.2708C34.3693 19.8719 33.9543 19.3114 33.7341 18.6666L32.8175 15.7916C32.6793 15.3796 32.4752 14.9926 32.2133 14.6458L31.9008 14.2916C31.4804 13.8716 30.9662 13.5574 30.4008 13.375L27.4841 12.4166C26.8635 12.183 26.3268 11.7695 25.9425 11.2291C25.5645 10.6845 25.3612 10.0379 25.3591 9.37498C25.3608 8.70558 25.5641 8.05223 25.9425 7.49998C26.3479 6.95421 26.9062 6.54096 27.5466 6.31248L30.38 5.39581C30.4256 5.38046 30.4712 5.36421 30.5162 5.34708C30.1581 5.2601 29.787 5.21469 29.4095 5.21469H21.4881C19.8586 5.21469 18.3461 6.06085 17.4935 7.4494L15.6715 10.4167H11.3372C7.5978 10.4167 4.56641 13.4481 4.56641 17.1875V36.9792C4.56641 40.7185 7.5978 43.75 11.3372 43.75H39.4623C43.2016 43.75 46.2331 40.7185 46.2331 36.9792ZM16.0247 26.0417C16.0247 20.864 20.2221 16.6667 25.3997 16.6667C30.5775 16.6667 34.7747 20.864 34.7747 26.0417C34.7747 31.2194 30.5775 35.4167 25.3997 35.4167C20.2221 35.4167 16.0247 31.2194 16.0247 26.0417Z" fill="#FF7A00"/>
</g>
<defs>
<clipPath id="clip0_753_4562">
<rect width="50" height="50" fill="white" transform="translate(0.399414)"/>
</clipPath>
</defs>
</svg>
