<svg width="53" height="52" viewBox="0 0 53 52" fill="none" xmlns="http://www.w3.org/2000/svg">
<g clip-path="url(#clip0_753_4567)">
<path d="M26.4001 15.1667C30.1144 15.1667 30.7334 12.2636 30.7334 9.87038C30.7334 7.47714 29.1353 3.25 26.4001 3.25C23.6649 3.25 22.0667 7.47714 22.0667 9.87038C22.0667 12.2636 22.6857 15.1667 26.4001 15.1667ZM7.9834 22.2083C7.9834 19.5159 10.166 17.3333 12.8584 17.3333H39.9417C42.634 17.3333 44.8167 19.5159 44.8167 22.2083V24.1042L36.9428 30.0096C36.0686 30.6653 34.8862 30.7313 33.9446 30.1775L29.5261 27.5784C27.5854 26.4368 25.167 26.4866 23.2751 27.7073L19.4602 30.1687C18.5703 30.7426 17.4274 30.7454 16.5347 30.1756L7.9834 24.7173V22.2083ZM7.9834 28.5729V40.0833H6.3584C5.46094 40.0833 4.7334 40.8109 4.7334 41.7083C4.7334 42.6058 5.46094 43.3333 6.3584 43.3333H46.4417C47.3392 43.3333 48.0667 42.6058 48.0667 41.7083C48.0667 40.8109 47.3392 40.0833 46.4417 40.0833H44.8167V28.1667L38.8928 32.6096C36.9697 34.052 34.3686 34.1976 32.2969 32.9788L27.8784 30.3797C26.9963 29.8608 25.897 29.8835 25.037 30.4384L21.2221 32.8995C19.2643 34.1627 16.75 34.1688 14.7861 32.9151L7.9834 28.5729Z" fill="#FF7A00"/>
</g>
<defs>
<clipPath id="clip0_753_4567">
<rect width="52" height="52" fill="white" transform="translate(0.399414)"/>
</clipPath>
</defs>
</svg>
