<svg width="14" height="10" viewBox="0 0 14 10" fill="none" xmlns="http://www.w3.org/2000/svg">
<path d="M1.6 7.85714H12.4C12.7314 7.85714 13 8.11297 13 8.42857C13 8.7216 12.7684 8.96314 12.47 8.99617L12.4 9H1.6C1.26863 9 1 8.74417 1 8.42857C1 8.13554 1.23162 7.894 1.53003 7.86097L1.6 7.85714ZM1.59993 4.42857L12.3999 4.42731C12.7313 4.42731 13 4.68309 13 4.99869C13 5.29171 12.7685 5.53331 12.47 5.56634L12.4001 5.57017L1.60007 5.57143C1.2687 5.57149 1 5.31566 1 5.00006C1 4.70703 1.23156 4.46549 1.52996 4.4324L1.59993 4.42857ZM1.6 1H12.4C12.7314 1 13 1.25584 13 1.57143C13 1.86448 12.7684 2.10601 12.47 2.13901L12.4 2.14286H1.6C1.26863 2.14286 1 1.88702 1 1.57143C1 1.27838 1.23162 1.03685 1.53003 1.00385L1.6 1Z" fill="white"/>
</svg>
