<svg width="59" height="59" viewBox="0 0 59 59" fill="none" xmlns="http://www.w3.org/2000/svg">
<path d="M19.7324 29.4997C25.0711 29.4997 29.3991 25.097 29.3991 19.6663C29.3991 14.2355 25.0711 9.83301 19.7324 9.83301C14.3937 9.83301 10.0658 14.2355 10.0658 19.6663C10.0658 25.097 14.3937 29.4997 19.7324 29.4997ZM41.4824 29.4997C45.4866 29.4997 48.7324 26.1979 48.7324 22.1247C48.7324 18.0516 45.4866 14.7497 41.4824 14.7497C37.4782 14.7497 34.2324 18.0516 34.2324 22.1247C34.2324 26.1979 37.4782 29.4997 41.4824 29.4997ZM10.6699 34.4163C7.66688 34.4163 5.23242 36.8929 5.23242 39.9476V40.5622C5.23242 40.5622 5.23242 51.6247 19.7324 51.6247C34.2324 51.6247 34.2324 40.5622 34.2324 40.5622V39.9476C34.2324 36.8929 31.7979 34.4163 28.7949 34.4163H10.6699ZM41.4829 47.9372C38.6525 47.9372 36.485 47.492 34.8252 46.8103C35.6517 45.397 36.0978 44.0388 36.3407 42.9802C36.4867 42.3437 36.5633 41.798 36.6039 41.3865C36.6242 41.1797 36.6356 41.0047 36.6418 40.8663C36.645 40.7969 36.6469 40.7365 36.6481 40.6858L36.6493 40.6168L36.6496 40.5875V40.5745V40.5681C36.6496 40.5602 36.6496 40.5622 36.6496 40.5622V39.9476C36.6496 37.8037 35.8194 35.8572 34.4685 34.422C34.5505 34.4183 34.6331 34.4163 34.7162 34.4163H48.2496C51.1858 34.4163 53.5662 36.8378 53.5662 39.8247C53.5662 39.8247 53.5662 47.9372 41.4829 47.9372Z" fill="#FF7A00"/>
</svg>
