<svg width="16" height="15" viewBox="0 0 16 15" fill="none" xmlns="http://www.w3.org/2000/svg">
<g clip-path="url(#clip0_753_4600)">
<path d="M8.03418 5.96484V8.78835H11.9579C11.7856 9.69638 11.2686 10.4652 10.4931 10.9822L12.8593 12.8182C14.2379 11.5457 15.0332 9.67655 15.0332 7.4562C15.0332 6.93923 14.9869 6.44209 14.9007 5.96492L8.03418 5.96484Z" fill="#4285F4"/>
<path d="M3.94804 8.67871L3.41438 9.08722L1.52539 10.5586C2.72504 12.938 5.18383 14.5818 8.03382 14.5818C10.0023 14.5818 11.6526 13.9322 12.8589 12.8188L10.4928 10.9828C9.84321 11.4202 9.01472 11.6854 8.03382 11.6854C6.13824 11.6854 4.5277 10.4062 3.95102 8.68292L3.94804 8.67871Z" fill="#34A853"/>
<path d="M1.5252 4.02344C1.02814 5.00433 0.743164 6.11121 0.743164 7.29097C0.743164 8.47072 1.02814 9.57761 1.5252 10.5585C1.5252 10.5651 3.95107 8.67616 3.95107 8.67616C3.80526 8.23872 3.71907 7.77479 3.71907 7.29089C3.71907 6.80699 3.80526 6.34306 3.95107 5.90562L1.5252 4.02344Z" fill="#FBBC05"/>
<path d="M8.03397 2.90304C9.10771 2.90304 10.0621 3.27419 10.8243 3.99002L12.9121 1.90224C11.6462 0.722491 10.0025 0 8.03397 0C5.18398 0 2.72504 1.6371 1.52539 4.02316L3.95118 5.9055C4.52778 4.18222 6.13839 2.90304 8.03397 2.90304Z" fill="#EA4335"/>
</g>
<defs>
<clipPath id="clip0_753_4600">
<rect width="14.5815" height="14.5815" fill="white" transform="translate(0.743164)"/>
</clipPath>
</defs>
</svg>
