<svg width="15" height="15" viewBox="0 0 15 15" fill="none" xmlns="http://www.w3.org/2000/svg">
<g clip-path="url(#clip0_753_4606)">
<path d="M7.45284 1.3129C9.40084 1.3129 9.63152 1.32145 10.3976 1.35562C11.1096 1.38695 11.4941 1.50656 11.7504 1.60624C12.0893 1.73725 12.3342 1.89673 12.5877 2.1502C12.844 2.40651 13.0006 2.64859 13.1316 2.98749C13.2313 3.24381 13.3509 3.63113 13.3823 4.34027C13.4164 5.10921 13.425 5.33989 13.425 7.28504C13.425 9.23303 13.4164 9.46372 13.3823 10.2298C13.3509 10.9418 13.2313 11.3263 13.1316 11.5826C13.0006 11.9215 12.8412 12.1664 12.5877 12.4199C12.3314 12.6762 12.0893 12.8328 11.7504 12.9638C11.4941 13.0635 11.1068 13.1831 10.3976 13.2145C9.62867 13.2486 9.39799 13.2572 7.45284 13.2572C5.50485 13.2572 5.27417 13.2486 4.50807 13.2145C3.79609 13.1831 3.41161 13.0635 3.1553 12.9638C2.81639 12.8328 2.57147 12.6733 2.318 12.4199C2.06169 12.1636 1.90505 11.9215 1.77405 11.5826C1.67437 11.3263 1.55475 10.939 1.52343 10.2298C1.48925 9.46087 1.48071 9.23018 1.48071 7.28504C1.48071 5.33705 1.48925 5.10636 1.52343 4.34027C1.55475 3.62828 1.67437 3.24381 1.77405 2.98749C1.90505 2.64859 2.06454 2.40366 2.318 2.1502C2.57432 1.89388 2.81639 1.73725 3.1553 1.60624C3.41161 1.50656 3.79893 1.38695 4.50807 1.35562C5.27417 1.32145 5.50485 1.3129 7.45284 1.3129ZM7.45284 0C5.47352 0 5.22575 0.00854383 4.44826 0.0427191C3.67362 0.0768945 3.14106 0.202204 2.67969 0.381624C2.19839 0.569589 1.79113 0.81736 1.38673 1.22462C0.979469 1.62902 0.731698 2.03628 0.543734 2.51473C0.364313 2.97895 0.239004 3.50867 0.204829 4.28331C0.170653 5.06364 0.162109 5.31141 0.162109 7.29073C0.162109 9.27006 0.170653 9.51783 0.204829 10.2953C0.239004 11.07 0.364313 11.6025 0.543734 12.0639C0.731698 12.5452 0.979469 12.9524 1.38673 13.3569C1.79113 13.7613 2.19839 14.0119 2.67684 14.197C3.14106 14.3764 3.67078 14.5017 4.44542 14.5359C5.2229 14.5701 5.47068 14.5786 7.45 14.5786C9.42932 14.5786 9.67709 14.5701 10.4546 14.5359C11.2292 14.5017 11.7618 14.3764 12.2232 14.197C12.7016 14.0119 13.1089 13.7613 13.5133 13.3569C13.9177 12.9524 14.1683 12.5452 14.3534 12.0667C14.5328 11.6025 14.6581 11.0728 14.6923 10.2982C14.7265 9.52067 14.735 9.2729 14.735 7.29358C14.735 5.31426 14.7265 5.06649 14.6923 4.289C14.6581 3.51436 14.5328 2.9818 14.3534 2.52043C14.174 2.03628 13.9262 1.62902 13.519 1.22462C13.1146 0.820208 12.7073 0.569589 12.2288 0.384472C11.7646 0.205052 11.2349 0.0797424 10.4603 0.0455671C9.67994 0.00854383 9.43217 0 7.45284 0Z" fill="#000100"/>
<path d="M7.45305 3.5459C5.38545 3.5459 3.70801 5.22334 3.70801 7.29094C3.70801 9.35855 5.38545 11.036 7.45305 11.036C9.52066 11.036 11.1981 9.35855 11.1981 7.29094C11.1981 5.22334 9.52066 3.5459 7.45305 3.5459ZM7.45305 9.72024C6.11167 9.72024 5.02376 8.63232 5.02376 7.29094C5.02376 5.94956 6.11167 4.86165 7.45305 4.86165C8.79443 4.86165 9.88235 5.94956 9.88235 7.29094C9.88235 8.63232 8.79443 9.72024 7.45305 9.72024Z" fill="#000100"/>
<path d="M12.2203 3.39776C12.2203 3.88191 11.8273 4.27208 11.346 4.27208C10.8618 4.27208 10.4717 3.87906 10.4717 3.39776C10.4717 2.91361 10.8647 2.52344 11.346 2.52344C11.8273 2.52344 12.2203 2.91645 12.2203 3.39776Z" fill="#000100"/>
</g>
<defs>
<clipPath id="clip0_753_4606">
<rect width="14.5815" height="14.5815" fill="white" transform="translate(0.162109)"/>
</clipPath>
</defs>
</svg>
