<svg width="15" height="15" viewBox="0 0 15 15" fill="none" xmlns="http://www.w3.org/2000/svg">
<g clip-path="url(#clip0_753_4612)">
<path d="M14.5815 7.29073C14.5815 3.26421 11.3173 0 7.29073 0C3.26421 0 0 3.26421 0 7.29073C0 10.7098 2.35403 13.5788 5.52959 14.3668V9.51878H4.02624V7.29073H5.52959V6.33069C5.52959 3.84922 6.65265 2.69903 9.08892 2.69903C9.55086 2.69903 10.3479 2.78973 10.6739 2.88013V4.89967C10.5019 4.88158 10.2029 4.87254 9.8317 4.87254C8.63631 4.87254 8.17437 5.32544 8.17437 6.50275V7.29073H10.5558L10.1467 9.51878H8.17437V14.5281C11.7845 14.0921 14.5818 11.0183 14.5818 7.29073H14.5815Z" fill="#0866FF"/>
<path d="M10.1468 9.51897L10.5559 7.29092H8.1745V6.50294C8.1745 5.32563 8.63644 4.87273 9.83183 4.87273C10.2031 4.87273 10.502 4.88177 10.6741 4.89985V2.88032C10.348 2.78962 9.55099 2.69922 9.08905 2.69922C6.65278 2.69922 5.52972 3.84941 5.52972 6.33088V7.29092H4.02637V9.51897H5.52972V14.367C6.09373 14.507 6.68369 14.5817 7.29087 14.5817C7.58979 14.5817 7.88462 14.5633 8.17421 14.5283V9.51897H10.1465H10.1468Z" fill="white" fill-opacity="0.7"/>
</g>
<defs>
<clipPath id="clip0_753_4612">
<rect width="14.5815" height="14.5815" fill="white"/>
</clipPath>
</defs>
</svg>
